<?xml version="1.0" encoding="UTF-8" standalone="no"?>
<!-- Created with Inkscape (http://www.inkscape.org/) -->

<svg
   width="512"
   height="512"
   viewBox="0 0 135.46666 135.46667"
   version="1.1"
   id="svg1"
   xml:space="preserve"
   sodipodi:docname="fit-height.svg"
   inkscape:export-filename="redo.png"
   inkscape:export-xdpi="96"
   inkscape:export-ydpi="96"
   inkscape:version="1.4.2 (ebf0e940d0, 2025-05-08)"
   xmlns:inkscape="http://www.inkscape.org/namespaces/inkscape"
   xmlns:sodipodi="http://sodipodi.sourceforge.net/DTD/sodipodi-0.dtd"
   xmlns="http://www.w3.org/2000/svg"
   xmlns:svg="http://www.w3.org/2000/svg"><sodipodi:namedview
     id="namedview1"
     pagecolor="#ffffff"
     bordercolor="#000000"
     borderopacity="0.25"
     inkscape:showpageshadow="2"
     inkscape:pageopacity="0.0"
     inkscape:pagecheckerboard="0"
     inkscape:deskcolor="#d1d1d1"
     inkscape:document-units="px"
     showguides="true"
     inkscape:zoom="0.77654715"
     inkscape:cx="247.89222"
     inkscape:cy="290.38803"
     inkscape:window-width="1326"
     inkscape:window-height="694"
     inkscape:window-x="0"
     inkscape:window-y="0"
     inkscape:window-maximized="1"
     inkscape:current-layer="layer1"><sodipodi:guide
       position="0,122.2375"
       orientation="0,1"
       id="guide1"
       inkscape:locked="false"
       inkscape:label=""
       inkscape:color="rgb(0,134,229)" /><sodipodi:guide
       position="0,13.229167"
       orientation="0,1"
       id="guide2"
       inkscape:locked="false"
       inkscape:label=""
       inkscape:color="rgb(0,134,229)" /><sodipodi:guide
       position="13.229167,0"
       orientation="-1,0"
       id="guide3"
       inkscape:locked="false"
       inkscape:label=""
       inkscape:color="rgb(0,134,229)" /><sodipodi:guide
       position="122.2375,135.46666"
       orientation="-1,0"
       id="guide4"
       inkscape:locked="false"
       inkscape:label=""
       inkscape:color="rgb(0,134,229)" /></sodipodi:namedview><defs
     id="defs1" /><g
     inkscape:label="Layer 1"
     inkscape:groupmode="layer"
     id="layer1"><path
       style="fill:#000000;stroke-width:1"
       d="m 85.216493,104.67214 c -0.190825,0.80046 -0.16071,0.76611 -5.851335,6.67634 -1.413976,1.46854 -4.267311,4.4092 -6.34075,6.53478 -4.011156,4.11203 -4.302401,4.35424 -5.235961,4.35424 -0.986396,0 -1.078532,-0.0821 -7.28254,-6.49111 -8.400174,-8.67772 -9.619512,-9.95565 -9.913204,-10.38962 -0.355545,-0.52536 -0.449583,-1.56105 -0.188686,-2.07808 0.478612,-0.94849 1.366383,-1.42613 2.465477,-1.32646 0.668488,0.0606 1.345538,0.26179 6.956736,2.06706 2.129077,0.68498 3.878649,1.23596 3.887937,1.2244 0.05266,-0.0655 0.106388,-75.064876 0.0538,-75.095736 -0.06429,-0.0377 -4.134649,1.22615 -8.074579,2.5072 -1.753725,0.57021 -2.309702,0.70734 -3.036856,0.749 -0.796335,0.0457 -0.93976,0.0244 -1.361349,-0.20139 -0.25918,-0.13881 -0.612607,-0.45311 -0.785394,-0.69843 -0.274537,-0.38978 -0.313669,-0.53405 -0.310284,-1.14387 0.007,-1.26369 -0.645586,-0.50927 8.529926,-9.86077 2.910351,-2.96616 5.807234,-5.92376 6.437519,-6.57244 1.247191,-1.28358 1.891743,-1.70199 2.615882,-1.69806 1.053369,0.005 0.784244,-0.25648 14.066741,13.70382 1.727726,1.8159 2.837462,3.06719 2.982629,3.3631 0.161395,0.32898 0.231747,0.66609 0.233049,1.11671 0.0016,0.55171 -0.04445,0.71143 -0.316944,1.09955 -0.731975,1.04255 -1.862791,1.23667 -3.712879,0.63737 -0.547159,-0.17725 -1.960866,-0.63688 -3.141575,-1.02141 -2.939384,-0.95728 -5.542365,-1.78315 -5.899395,-1.87174 l -0.296913,-0.0737 0.07536,30.032457 c 0.04145,16.517835 0.104372,33.410143 0.139835,37.53844 l 0.06448,7.505999 2.042025,-0.6566 c 1.12311,-0.36113 3.385046,-1.09278 5.026522,-1.6259 3.950797,-1.28314 4.510276,-1.32404 5.509777,-0.40273 0.594946,0.5484 0.842769,1.33488 0.660956,2.09754 z"
       id="path6" /></g></svg>
