<?xml version="1.0" encoding="UTF-8" standalone="no"?>
<!-- Created with Inkscape (http://www.inkscape.org/) -->

<svg
   width="512"
   height="512"
   viewBox="0 0 135.46666 135.46667"
   version="1.1"
   id="svg1"
   xml:space="preserve"
   sodipodi:docname="fit-width.svg"
   inkscape:export-filename="redo.png"
   inkscape:export-xdpi="96"
   inkscape:export-ydpi="96"
   inkscape:version="1.4.2 (ebf0e940d0, 2025-05-08)"
   xmlns:inkscape="http://www.inkscape.org/namespaces/inkscape"
   xmlns:sodipodi="http://sodipodi.sourceforge.net/DTD/sodipodi-0.dtd"
   xmlns="http://www.w3.org/2000/svg"
   xmlns:svg="http://www.w3.org/2000/svg"><sodipodi:namedview
     id="namedview1"
     pagecolor="#ffffff"
     bordercolor="#000000"
     borderopacity="0.25"
     inkscape:showpageshadow="2"
     inkscape:pageopacity="0.0"
     inkscape:pagecheckerboard="0"
     inkscape:deskcolor="#d1d1d1"
     inkscape:document-units="px"
     showguides="true"
     inkscape:zoom="0.5785986"
     inkscape:cx="121.84613"
     inkscape:cy="282.57932"
     inkscape:window-width="1326"
     inkscape:window-height="694"
     inkscape:window-x="0"
     inkscape:window-y="0"
     inkscape:window-maximized="1"
     inkscape:current-layer="layer1"><sodipodi:guide
       position="0,122.2375"
       orientation="0,1"
       id="guide1"
       inkscape:locked="false"
       inkscape:label=""
       inkscape:color="rgb(0,134,229)" /><sodipodi:guide
       position="0,13.229167"
       orientation="0,1"
       id="guide2"
       inkscape:locked="false"
       inkscape:label=""
       inkscape:color="rgb(0,134,229)" /><sodipodi:guide
       position="13.229167,0"
       orientation="-1,0"
       id="guide3"
       inkscape:locked="false"
       inkscape:label=""
       inkscape:color="rgb(0,134,229)" /><sodipodi:guide
       position="122.2375,135.46666"
       orientation="-1,0"
       id="guide4"
       inkscape:locked="false"
       inkscape:label=""
       inkscape:color="rgb(0,134,229)" /></sodipodi:namedview><defs
     id="defs1" /><g
     inkscape:label="Layer 1"
     inkscape:groupmode="layer"
     id="layer1"><path
       style="fill:#000000;stroke-width:1"
       d="m 30.794523,85.216493 c -0.800463,-0.190825 -0.766105,-0.16071 -6.676343,-5.851335 -1.468539,-1.413976 -4.409192,-4.267311 -6.534776,-6.34075 -4.112034,-4.011156 -4.354237,-4.302401 -4.354237,-5.235961 0,-0.986396 0.08212,-1.078532 6.491109,-7.28254 8.677717,-8.400174 9.955653,-9.619512 10.389619,-9.913204 0.525359,-0.355545 1.561048,-0.449583 2.078078,-0.188686 0.948493,0.478612 1.426127,1.366383 1.326464,2.465477 -0.06061,0.668488 -0.261792,1.345538 -2.06706,6.956736 -0.68498,2.129077 -1.235962,3.878649 -1.224405,3.887937 0.06553,0.05266 75.064878,0.106388 75.095738,0.0538 0.0377,-0.06429 -1.22615,-4.134649 -2.5072,-8.074579 -0.57021,-1.753725 -0.70734,-2.309702 -0.749,-3.036856 -0.0457,-0.796335 -0.0244,-0.93976 0.20139,-1.361349 0.13881,-0.25918 0.45311,-0.612607 0.69843,-0.785394 0.38978,-0.274537 0.53405,-0.313669 1.14387,-0.310284 1.26369,0.007 0.50927,-0.645586 9.86077,8.529926 2.96616,2.910351 5.92376,5.807234 6.57244,6.437519 1.28358,1.247191 1.70199,1.891743 1.69806,2.615882 -0.005,1.053369 0.25648,0.784244 -13.70382,14.066741 -1.8159,1.727726 -3.06719,2.837462 -3.3631,2.982629 -0.32898,0.161395 -0.66609,0.231747 -1.11671,0.233049 -0.55171,0.0016 -0.71143,-0.04445 -1.09955,-0.316944 -1.04255,-0.731975 -1.23667,-1.862791 -0.63737,-3.712879 0.17725,-0.547159 0.63688,-1.960866 1.02141,-3.141575 0.95728,-2.939384 1.78315,-5.542365 1.87174,-5.899395 l 0.0737,-0.296913 -30.032457,0.07536 c -16.517835,0.04145 -33.410143,0.104372 -37.53844,0.139835 l -7.505998,0.06448 0.656599,2.042025 c 0.36113,1.12311 1.092785,3.385046 1.625905,5.026522 1.28314,3.950797 1.324033,4.510276 0.402723,5.509777 -0.548401,0.594946 -1.334873,0.842769 -2.097539,0.660956 z"
       id="path5" /></g></svg>
